<svg viewBox="0 0 800 240" xmlns="http://www.w3.org/2000/svg" preserveAspectRatio="xMidYMid meet">
  <defs>
    <linearGradient id="zenith8a" x1="0%" y1="0%" x2="0%" y2="100%">
      <stop offset="0%" stop-color="#F4E5A1"/>
      <stop offset="40%" stop-color="#D4AF37"/>
      <stop offset="100%" stop-color="#B8945A"/>
    </linearGradient>
    <linearGradient id="zenith8b" x1="0%" y1="0%" x2="0%" y2="100%">
      <stop offset="0%" stop-color="#D4AF37"/>
      <stop offset="100%" stop-color="#8B6F3F"/>
    </linearGradient>
  </defs>
  <!-- Outer symmetric peaks -->
  <path d="M400 80 L300 180 L260 180 L340 110 Z" fill="url(#zenith8b)" opacity="0.7"/>
  <path d="M400 80 L500 180 L540 180 L460 110 Z" fill="url(#zenith8b)" opacity="0.7"/>
  <!-- Inner peaks -->
  <path d="M400 50 L460 180 L400 140 Z" fill="url(#zenith8a)"/>
  <path d="M400 50 L340 180 L400 140 Z" fill="url(#zenith8a)" opacity="0.85"/>
  <!-- Center peak -->
  <path d="M400 30 L430 180 L370 180 Z" fill="url(#zenith8a)"/>
  <!-- Snow cap detailed -->
  <path d="M400 30 L425 85 L410 75 L400 90 L390 75 L375 85 Z" fill="#FFFFFF" opacity="0.95"/>
  <!-- Stars -->
  <circle cx="320" cy="60" r="4" fill="#D4AF37" opacity="0.8"/>
  <circle cx="480" cy="60" r="4" fill="#D4AF37" opacity="0.8"/>
</svg>